# xmcd
#
# Track frame offsets:
#	150
#	3232
#	15685
#	31000
#	42812
#	59865
#	77282
#	98372
#	111827
#	125307
#	137382
#
# Disc length: 2002 seconds
#
# Revision: 0
# Processed by: cddbd v1.5.2PL0 Copyright (c) Steve Scherf et al.
# Submitted via: EasyCDDAExtractor 10.2.0.1
#
DISCID=7407d00b
DTITLE=The Osborne Brothers - The Osborne Brothers... Live In Germany - Disc 1
DYEAR=2007
DGENRE=Bluegrass
TTITLE0=Fire On The Mountain
TTITLE1=Walkin' The Floor Over You
TTITLE2=Let's Be Sweethearts, Again
TTITLE3=Muddy Bottom
TTITLE4=If I Should Wander Back Tonight
TTITLE5=Bluegrass Melodies
TTITLE6=Kentucky
TTITLE7=Sunny Side Of The Mountain
TTITLE8=Listening To The Rain
TTITLE9=Some Things I Want To Sing About
TTITLE10=Your Love Is Like A Flower
EXTD=
EXTT0=
EXTT1=
EXTT2=
EXTT3=
EXTT4=
EXTT5=
EXTT6=
EXTT7=
EXTT8=
EXTT9=
EXTT10=
PLAYORDER=
